<?xml version="1.0" encoding="UTF-8" standalone="no"?><!DOCTYPE svg PUBLIC "-//W3C//DTD SVG 1.1//EN" "http://www.w3.org/Graphics/SVG/1.1/DTD/svg11.dtd"><svg width="100%" height="100%" viewBox="0 0 100 100" version="1.1" xmlns="http://www.w3.org/2000/svg" xmlns:xlink="http://www.w3.org/1999/xlink" xml:space="preserve" xmlns:serif="http://www.serif.com/" style="fill-rule:evenodd;clip-rule:evenodd;stroke-linejoin:round;stroke-miterlimit:2;"><path d="M42.498,40c-3.978,0.001 -7.792,1.581 -10.605,4.393c-2.813,2.813 -4.393,6.629 -4.393,10.607l0,0c0,3.978 1.58,7.794 4.393,10.607c2.813,2.813 6.629,4.393 10.607,4.393l30,0c3.978,0 7.794,-1.58 10.607,-4.393c2.813,-2.813 4.393,-6.629 4.393,-10.607l0,-0c-0,-3.978 -1.58,-7.794 -4.393,-10.607c-2.813,-2.813 -6.629,-4.393 -10.607,-4.393l-0.002,0l-0,-0.003c-0.001,-3.978 -1.582,-7.793 -4.396,-10.606c-2.813,-2.812 -6.629,-4.392 -10.607,-4.391c-0,0 -0,0 -0,0c-3.979,0.001 -7.794,1.582 -10.606,4.396c-2.812,2.812 -4.391,6.627 -4.391,10.604Z" style="fill:#343a40;"/><path d="M27.498,45c-3.978,0.001 -7.792,1.581 -10.605,4.393c-2.813,2.813 -4.393,6.629 -4.393,10.607l0,0c0,3.978 1.58,7.794 4.393,10.607c2.813,2.813 6.629,4.393 10.607,4.393l30,0c3.978,0 7.794,-1.58 10.607,-4.393c2.813,-2.813 4.393,-6.629 4.393,-10.607l0,-0c-0,-3.978 -1.58,-7.794 -4.393,-10.607c-2.813,-2.813 -6.629,-4.393 -10.607,-4.393l-0.002,0l-0,-0.003c-0.001,-3.978 -1.582,-7.793 -4.396,-10.606c-2.813,-2.812 -6.629,-4.392 -10.607,-4.391c-0,0 -0,0 -0,0c-3.979,0.001 -7.794,1.582 -10.606,4.396c-2.812,2.812 -4.391,6.627 -4.391,10.604Z" style="fill:#adb5bd;"/></svg>