<?xml version="1.0" encoding="UTF-8" standalone="no"?>
<!DOCTYPE svg PUBLIC "-//W3C//DTD SVG 1.1//EN" "http://www.w3.org/Graphics/SVG/1.1/DTD/svg11.dtd">
<svg width="100%" height="100%" viewBox="0 0 100 100" version="1.1" xmlns="http://www.w3.org/2000/svg" xmlns:xlink="http://www.w3.org/1999/xlink" xml:space="preserve" xmlns:serif="http://www.serif.com/" style="fill-rule:evenodd;clip-rule:evenodd;stroke-linejoin:round;stroke-miterlimit:2;">
    <g transform="matrix(1,0,0,1,7.5,-39.9265)">
        <path d="M34.998,70C31.02,70.001 27.206,71.581 24.393,74.393C21.58,77.206 20,81.022 20,85L20,85C20,88.978 21.58,92.794 24.393,95.607C27.206,98.42 31.022,100 35,100L65,100C68.978,100 72.794,98.42 75.607,95.607C78.42,92.794 80,88.978 80,85L80,85C80,81.022 78.42,77.206 75.607,74.393C72.794,71.58 68.978,70 65,70L64.998,70L64.998,69.997C64.997,66.019 63.416,62.204 60.602,59.391C57.789,56.579 53.973,54.999 49.995,55C49.995,55 49.995,55 49.995,55C46.016,55.001 42.201,56.582 39.389,59.396C36.577,62.208 34.998,66.023 34.998,70Z" style="fill:rgb(52,58,64);"/>
    </g>
    <g transform="matrix(1,0,0,1,-7.5,-34.9265)">
        <path d="M34.998,70C31.02,70.001 27.206,71.581 24.393,74.393C21.58,77.206 20,81.022 20,85L20,85C20,88.978 21.58,92.794 24.393,95.607C27.206,98.42 31.022,100 35,100L65,100C68.978,100 72.794,98.42 75.607,95.607C78.42,92.794 80,88.978 80,85L80,85C80,81.022 78.42,77.206 75.607,74.393C72.794,71.58 68.978,70 65,70L64.998,70L64.998,69.997C64.997,66.019 63.416,62.204 60.602,59.391C57.789,56.579 53.973,54.999 49.995,55C49.995,55 49.995,55 49.995,55C46.016,55.001 42.201,56.582 39.389,59.396C36.577,62.208 34.998,66.023 34.998,70Z" style="fill:rgb(173,181,189);"/>
    </g>
    <g transform="matrix(1,0,0,1,0,-4.45139)">
        <path d="M37.883,54.451L46.529,54.451L42.5,64.13L46.964,63.953L31.25,89.378L38.75,69.525L34.034,69.525L37.883,54.451Z" style="fill:rgb(255,174,91);"/>
    </g>
</svg>
