<?xml version="1.0" encoding="UTF-8" standalone="no"?><!DOCTYPE svg PUBLIC "-//W3C//DTD SVG 1.1//EN" "http://www.w3.org/Graphics/SVG/1.1/DTD/svg11.dtd"><svg width="100%" height="100%" viewBox="0 0 100 100" version="1.1" xmlns="http://www.w3.org/2000/svg" xmlns:xlink="http://www.w3.org/1999/xlink" xml:space="preserve" xmlns:serif="http://www.serif.com/" style="fill-rule:evenodd;clip-rule:evenodd;stroke-linejoin:round;stroke-miterlimit:2;"><path d="M85,50c-0,-1.381 -1.119,-2.5 -2.5,-2.5c-10.888,0 -54.112,0 -65,0c-1.381,0 -2.5,1.119 -2.5,2.5c0,0 0,0 0,0c0,1.381 1.119,2.5 2.5,2.5c10.888,0 54.112,0 65,0c1.381,-0 2.5,-1.119 2.5,-2.5c0,0 0,0 0,-0Z" style="fill:#343a40;"/><path d="M83.271,60c0,-0.663 -0.263,-1.299 -0.732,-1.768c-0.469,-0.469 -1.105,-0.732 -1.768,-0.732c-10.495,0 -50.934,0 -61.429,0c-0.664,-0 -1.299,0.263 -1.768,0.732c-0.469,0.469 -0.732,1.105 -0.732,1.768c-0,0 -0,0 -0,0c-0,0.663 0.263,1.299 0.732,1.768c0.469,0.469 1.104,0.732 1.768,0.732c10.495,0 50.934,0 61.429,0c0.663,0 1.299,-0.263 1.768,-0.732c0.469,-0.469 0.732,-1.105 0.732,-1.768c0,0 0,0 0,-0Z" style="fill:#343a40;"/><path d="M83.271,40c0,-0.663 -0.263,-1.299 -0.732,-1.768c-0.469,-0.469 -1.105,-0.732 -1.768,-0.732c-10.495,0 -50.934,0 -61.429,0c-0.664,-0 -1.299,0.263 -1.768,0.732c-0.469,0.469 -0.732,1.105 -0.732,1.768c-0,0 -0,0 -0,0c-0,0.663 0.263,1.299 0.732,1.768c0.469,0.469 1.104,0.732 1.768,0.732c10.495,0 50.934,0 61.429,0c0.663,0 1.299,-0.263 1.768,-0.732c0.469,-0.469 0.732,-1.105 0.732,-1.768c0,0 0,0 0,-0Z" style="fill:#343a40;"/><path d="M77.988,30c0,-0.663 -0.263,-1.299 -0.732,-1.768c-0.469,-0.469 -1.105,-0.732 -1.768,-0.732c-9.277,-0 -41.672,-0 -50.949,0c-0.663,-0 -1.299,0.263 -1.768,0.732c-0.469,0.469 -0.732,1.105 -0.732,1.768c-0,0 -0,0 -0,0c-0,0.663 0.263,1.299 0.732,1.768c0.469,0.469 1.105,0.732 1.768,0.732c9.277,0 41.672,0 50.949,0c0.663,0 1.299,-0.263 1.768,-0.732c0.469,-0.469 0.732,-1.105 0.732,-1.768c0,0 0,0 0,-0Z" style="fill:#343a40;"/><path d="M64.927,20c0,-1.381 -1.119,-2.5 -2.5,-2.5c-5.611,-0 -19.155,-0 -24.767,-0c-1.381,0 -2.5,1.119 -2.5,2.5c0,0 0,0 0,0c0,1.381 1.119,2.5 2.5,2.5c5.612,-0 19.156,-0 24.767,-0c1.381,-0 2.5,-1.119 2.5,-2.5c0,0 0,0 0,-0Z" style="fill:#343a40;"/><path d="M77.988,70c0,-0.663 -0.263,-1.299 -0.732,-1.768c-0.469,-0.469 -1.105,-0.732 -1.768,-0.732c-9.277,-0 -41.672,-0 -50.949,0c-0.663,-0 -1.299,0.263 -1.768,0.732c-0.469,0.469 -0.732,1.105 -0.732,1.768c-0,0 -0,0 -0,0c-0,0.663 0.263,1.299 0.732,1.768c0.469,0.469 1.105,0.732 1.768,0.732c9.277,-0 41.672,-0 50.949,-0c0.663,0 1.299,-0.263 1.768,-0.732c0.469,-0.469 0.732,-1.105 0.732,-1.768c0,0 0,0 0,-0Z" style="fill:#343a40;"/><path d="M64.927,80c0,-1.381 -1.119,-2.5 -2.5,-2.5c-5.611,-0 -19.155,-0 -24.767,-0c-1.381,0 -2.5,1.119 -2.5,2.5c0,0 0,0 0,0c0,1.381 1.119,2.5 2.5,2.5c5.612,-0 19.156,-0 24.767,-0c1.381,-0 2.5,-1.119 2.5,-2.5c0,0 0,0 0,-0Z" style="fill:#343a40;"/></svg>