<?xml version="1.0" encoding="UTF-8" standalone="no"?><!DOCTYPE svg PUBLIC "-//W3C//DTD SVG 1.1//EN" "http://www.w3.org/Graphics/SVG/1.1/DTD/svg11.dtd"><svg width="100%" height="100%" viewBox="0 0 100 100" version="1.1" xmlns="http://www.w3.org/2000/svg" xmlns:xlink="http://www.w3.org/1999/xlink" xml:space="preserve" xmlns:serif="http://www.serif.com/" style="fill-rule:evenodd;clip-rule:evenodd;stroke-linejoin:round;stroke-miterlimit:2;"><path d="M42.498,30.074c-3.978,0 -7.792,1.58 -10.605,4.393c-2.813,2.813 -4.393,6.628 -4.393,10.607l0,-0c0,3.978 1.58,7.793 4.393,10.606c2.813,2.813 6.629,4.394 10.607,4.394l30,-0c3.978,-0 7.794,-1.581 10.607,-4.394c2.813,-2.813 4.393,-6.628 4.393,-10.606l0,-0c-0,-3.979 -1.58,-7.794 -4.393,-10.607c-2.813,-2.813 -6.629,-4.393 -10.607,-4.393l-0.002,-0l-0,-0.004c-0.001,-3.978 -1.582,-7.793 -4.396,-10.605c-2.813,-2.813 -6.629,-4.392 -10.607,-4.391c-0,-0 -0,-0 -0,-0c-3.979,0 -7.794,1.582 -10.606,4.395c-2.812,2.813 -4.391,6.627 -4.391,10.605Z" style="fill:#343a40;"/><path d="M27.498,35.074c-3.978,0 -7.792,1.58 -10.605,4.393c-2.813,2.813 -4.393,6.628 -4.393,10.607l0,-0c0,3.978 1.58,7.793 4.393,10.606c2.813,2.813 6.629,4.394 10.607,4.394l30,-0c3.978,-0 7.794,-1.581 10.607,-4.394c2.813,-2.813 4.393,-6.628 4.393,-10.606l0,-0c-0,-3.979 -1.58,-7.794 -4.393,-10.607c-2.813,-2.813 -6.629,-4.393 -10.607,-4.393l-0.002,-0l-0,-0.004c-0.001,-3.978 -1.582,-7.793 -4.396,-10.605c-2.813,-2.813 -6.629,-4.392 -10.607,-4.391c-0,-0 -0,-0 -0,-0c-3.979,0 -7.794,1.582 -10.606,4.395c-2.812,2.813 -4.391,6.627 -4.391,10.605Z" style="fill:#adb5bd;"/><path d="M37.883,50l8.646,0l-4.029,9.679l4.464,-0.178l-15.714,25.425l7.5,-19.852l-4.716,-0l3.849,-15.074Z" style="fill:#ffae5b;"/></svg>