<?xml version="1.0" encoding="UTF-8" standalone="no"?><!DOCTYPE svg PUBLIC "-//W3C//DTD SVG 1.1//EN" "http://www.w3.org/Graphics/SVG/1.1/DTD/svg11.dtd"><svg width="100%" height="100%" viewBox="0 0 100 100" version="1.1" xmlns="http://www.w3.org/2000/svg" xmlns:xlink="http://www.w3.org/1999/xlink" xml:space="preserve" xmlns:serif="http://www.serif.com/" style="fill-rule:evenodd;clip-rule:evenodd;stroke-linejoin:round;stroke-miterlimit:2;"><path d="M47.488,25.506l-0,49l-6.946,6.946l3.535,3.536l5.917,-5.917l5.904,5.904l3.536,-3.535l-6.946,-6.946l-0,-49l6.946,-6.946l-3.536,-3.536l-5.917,5.917l-5.904,-5.904l-3.535,3.535l6.946,6.946Z" style="fill:#343a40;"/><path d="M65.549,30.904l-34.648,34.648l-9.823,-0l-0,5l8.367,-0l0,8.349l5,0l0,-9.823l34.648,-34.648l9.824,0l-0,-5l-8.368,0l-0,-8.35l-5,0l-0,9.824Z" style="fill:#343a40;"/><path d="M25.506,52.5l49,0l6.946,6.946l3.536,-3.536l-5.917,-5.916l5.904,-5.904l-3.535,-3.536l-6.946,6.946l-49,0l-6.946,-6.946l-3.536,3.536l5.917,5.916l-5.904,5.904l3.535,3.536l6.946,-6.946Z" style="fill:#343a40;"/><path d="M30.901,34.448l34.648,34.648l-0,9.824l5,-0l-0,-8.368l8.349,-0l0,-5l-9.823,-0l-34.648,-34.648l0,-9.824l-5,0l0,8.368l-8.349,0l-0,5l9.823,0Z" style="fill:#343a40;"/></svg>